<svg id="Camada_1" data-name="Camada 1" xmlns="http://www.w3.org/2000/svg" viewBox="0 0 1000 1000"><defs><style>.cls-1{fill:#ff5050;}.cls-2{fill:#4e63f9;}.cls-3{fill:#262626;}</style></defs><title>Prancheta 1</title><polygon class="cls-1" points="172 507 242 552 242 589 357 589 357 644 172 644 172 507"/><polygon class="cls-2" points="242 555 242 331 172 400 172 513 242 555"/><polygon class="cls-2" points="393 544 459 518 523 518 576 449 541 262 438 309 393 544"/><polygon class="cls-1" points="375 644 439 644 451 568 531 568 544 644 614 644 576 446.5 396.37 526.38 375 644"/><path class="cls-1" d="M646,434l210,49h2s49,146-80,161H646Z"/><path class="cls-2" d="M810,441s39,10,48,43L646,435l1-173H760C875.69,262.83,898.84,403.44,810,441Z"/><polygon class="cls-3" points="172 400 242 331 242 262 172 262 172 400"/><polygon class="cls-3" points="438 309 541 262 447 262 438 309"/></svg>